<svg width="30" height="27" viewBox="0 0 30 27" fill="none" xmlns="http://www.w3.org/2000/svg">
<g clip-path="url(#clip0)">
<path d="M29.6149 20.1737C28.7524 19.2469 27.1386 17.8527 27.1386 13.2857C27.1386 9.81696 24.7064 7.04018 21.427 6.35893V5.42857C21.427 4.63973 20.7877 4 19.9993 4C19.2109 4 18.5716 4.63973 18.5716 5.42857V6.35893C15.2922 7.04018 12.86 9.81696 12.86 13.2857C12.86 17.8527 11.2462 19.2469 10.3837 20.1737C10.1158 20.4616 9.9971 20.8058 9.99933 21.1429C10.0042 21.875 10.5788 22.5714 11.4324 22.5714H28.5663C29.4198 22.5714 29.9948 21.875 29.9993 21.1429C30.0015 20.8058 29.8828 20.4612 29.6149 20.1737ZM13.0141 20.4286C13.9614 19.1799 14.9971 17.1103 15.002 13.3116C15.002 13.3027 14.9993 13.2946 14.9993 13.2857C14.9993 10.5241 17.2377 8.28571 19.9993 8.28571C22.7609 8.28571 24.9993 10.5241 24.9993 13.2857C24.9993 13.2946 24.9966 13.3027 24.9966 13.3116C25.0015 17.1107 26.0373 19.1804 26.9846 20.4286H13.0141ZM19.9993 26.8571C21.5761 26.8571 22.8551 25.5781 22.8551 24H17.1435C17.1435 25.5781 18.4225 26.8571 19.9993 26.8571Z" fill="#AFAFAF"/>
</g>
<circle cx="4" cy="4" r="4" fill="#41ACB3"/>
<defs>
<clipPath id="clip0">
<rect width="20" height="22.8571" fill="white" transform="translate(10 4)"/>
</clipPath>
</defs>
</svg>
